<svg width="133" height="133" viewBox="0 0 133 133" fill="none" xmlns="http://www.w3.org/2000/svg">
<rect width="133" height="133" rx="28.3733" fill="#5898FF"/>
<path d="M24.3833 54.958H44.6755V101.003H24.3833V54.958Z" fill="white"/>
<path d="M54.5693 53.727L74.1779 48.9104L91.699 100.988L72.0904 101.003L54.5693 53.727Z" fill="white"/>
<path d="M88.5028 32.2491H108.617L99.6179 101.065L79.5041 100.998L88.5028 32.2491Z" fill="white"/>
<path d="M24.3833 55.1882C24.3833 49.5469 26.6205 44.0979 30.6779 39.8565C34.7354 35.6152 40.3366 32.8706 46.4377 32.1343C52.5389 31.3979 58.724 32.72 63.8408 35.8542C68.9575 38.9883 72.6568 43.7208 74.2495 49.1699L54.6488 53.9845C54.3302 52.8947 53.5903 51.9482 52.567 51.3214C51.5437 50.6946 50.3066 50.4302 49.0864 50.5774C47.8662 50.7247 46.7459 51.2736 45.9344 52.1219C45.1229 52.9701 44.6755 54.0599 44.6755 55.1882H24.3833Z" fill="white"/>
</svg>
