<svg width="724" height="133" viewBox="0 0 724 133" fill="none" xmlns="http://www.w3.org/2000/svg">
<rect width="133" height="133" rx="28.3733" fill="#5898FF"/>
<path d="M24.3833 54.958H44.6755V101.003H24.3833V54.958Z" fill="white"/>
<path d="M54.5693 53.727L74.1779 48.9104L91.699 100.988L72.0904 101.003L54.5693 53.727Z" fill="white"/>
<path d="M88.5028 32.2491H108.617L99.6179 101.065L79.5041 100.998L88.5028 32.2491Z" fill="white"/>
<path d="M24.3833 55.1882C24.3833 49.5469 26.6205 44.0979 30.6779 39.8565C34.7354 35.6152 40.3366 32.8706 46.4377 32.1343C52.5389 31.3979 58.724 32.72 63.8408 35.8542C68.9575 38.9883 72.6568 43.7208 74.2495 49.1699L54.6488 53.9845C54.3302 52.8947 53.5903 51.9482 52.567 51.3214C51.5437 50.6946 50.3066 50.4302 49.0864 50.5774C47.8662 50.7247 46.7459 51.2736 45.9344 52.1219C45.1229 52.9701 44.6755 54.0599 44.6755 55.1882H24.3833Z" fill="white"/>
<path d="M229.603 68.128V40.5012H244.538V109.915H229.603V82.2885H197.935V109.915H183V40.5012H197.935V68.128H229.603Z" fill="white"/>
<path d="M316.628 50.358V40.5012H331.563V109.915H316.628V99.9197C311.005 107.787 302.938 111.72 292.428 111.72C282.932 111.72 274.82 108.203 268.09 101.169C261.36 94.1352 257.995 85.4815 257.995 75.2083C257.995 64.935 261.36 56.2813 268.09 49.2474C274.82 42.2134 282.932 38.6965 292.428 38.6965C302.938 38.6965 311.005 42.5836 316.628 50.358ZM279.153 91.1735C283.301 95.3383 288.51 97.4208 294.779 97.4208C301.048 97.4208 306.257 95.3383 310.405 91.1735C314.554 86.9161 316.628 81.5943 316.628 75.2083C316.628 68.8222 314.554 63.5467 310.405 59.3818C306.257 55.1244 301.048 52.9957 294.779 52.9957C288.51 52.9957 283.301 55.1244 279.153 59.3818C275.004 63.5467 272.93 68.8222 272.93 75.2083C272.93 81.5018 275.004 86.8235 279.153 91.1735Z" fill="white"/>
<path d="M399.031 30.7832H360.311V17.7334H399.031V30.7832ZM363.63 84.5097L399.031 40.5012H410.509V109.915H395.85V65.7679L360.449 109.915H348.971V40.5012H363.63V84.5097Z" fill="white"/>
<path d="M483.153 40.5012H498.364V109.915H483.844V64.2408L463.931 96.0325H462.133L442.358 64.3797V109.915H427.838V40.5012H443.049L463.101 72.5705L483.153 40.5012Z" fill="white"/>
<path d="M530.276 84.5097L565.677 40.5012H577.155V109.915H562.497V65.7679L527.095 109.915H515.618V40.5012H530.276V84.5097Z" fill="white"/>
<path d="M624.078 74.5141L655.607 109.915H637.768L609.419 77.846V109.915H594.484V40.5012H609.419V71.1822L636.247 40.5012H654.501L624.078 74.5141Z" fill="white"/>
<path d="M692.752 111.72C682.334 111.72 673.622 108.203 666.616 101.169C659.702 94.0426 656.244 85.389 656.244 75.2083C656.244 64.8424 659.702 56.1888 666.616 49.2474C673.622 42.2134 682.334 38.6965 692.752 38.6965C699.482 38.6965 705.613 40.3161 711.144 43.5554C716.676 46.7948 720.824 51.1447 723.59 56.6053L710.729 64.102C709.162 60.7701 706.765 58.1787 703.538 56.3276C700.404 54.384 696.762 53.4122 692.614 53.4122C686.529 53.4122 681.413 55.4947 677.264 59.6595C673.208 63.9169 671.179 69.0998 671.179 75.2083C671.179 81.3167 673.208 86.4996 677.264 90.757C681.413 94.9218 686.529 97.0043 692.614 97.0043C696.67 97.0043 700.312 96.0788 703.538 94.2277C706.857 92.2841 709.346 89.6464 711.006 86.3145L723.867 93.6724C720.917 99.2255 716.63 103.622 711.006 106.861C705.474 110.1 699.39 111.72 692.752 111.72Z" fill="white"/>
</svg>
