<svg width="307" height="60" viewBox="0 0 307 60" fill="none" xmlns="http://www.w3.org/2000/svg">
<path d="M1.5625 58.3438C0.520833 58.3438 0 57.7708 0 56.625V15.25C0 14.1042 0.520833 13.5312 1.5625 13.5312H4.4375C5.47917 13.5312 6 14.1042 6 15.25V32.4688H27.8125V15.25C27.8125 14.1042 28.3333 13.5312 29.375 13.5312H32.25C33.2917 13.5312 33.8125 14.1042 33.8125 15.25V56.625C33.8125 57.7708 33.2917 58.3438 32.25 58.3438H29.375C28.3333 58.3438 27.8125 57.7708 27.8125 56.625V37.5938H6V56.625C6 57.7708 5.47917 58.3438 4.4375 58.3438H1.5625ZM42.1875 58.3438C41.1042 58.3438 40.8229 57.6562 41.3438 56.2812L56.9062 15.4375C57.3854 14.1667 58.0729 13.5312 58.9688 13.5312H63.3438C64.2396 13.5312 64.9271 14.1667 65.4062 15.4375L80.9688 56.2812C81.4896 57.6562 81.2083 58.3438 80.125 58.3438H76.9375C75.8333 58.3438 75.0833 57.8333 74.6875 56.8125L70.7812 46.4688H51.5312L47.625 56.8125C47.2292 57.8333 46.4792 58.3438 45.375 58.3438H42.1875ZM53.5 41.3438H68.8125L64.0312 28.8438C63.5938 27.6771 63.1562 26.3854 62.7188 24.9688C62.3021 23.5521 61.8021 21.5417 61.2188 18.9375H61.0938C60.5104 21.5417 60 23.5521 59.5625 24.9688C59.1458 26.3854 58.7188 27.6771 58.2812 28.8438L53.5 41.3438ZM88.5 58.3438C87.4583 58.3438 86.9375 57.7708 86.9375 56.625V15.25C86.9375 14.1042 87.4583 13.5312 88.5 13.5312H91.375C92.4167 13.5312 92.9375 14.1042 92.9375 15.25V47.7188C92.9375 48.5521 92.9167 49.3854 92.875 50.2188H93L113 15.0938C113.583 14.0521 114.625 13.5312 116.125 13.5312H120.125C121.167 13.5312 121.688 14.1042 121.688 15.25V56.625C121.688 57.7708 121.167 58.3438 120.125 58.3438H117.25C116.208 58.3438 115.688 57.7708 115.688 56.625V24.1562C115.688 23.3229 115.708 22.4896 115.75 21.6562H115.625L95.625 56.7812C95.0417 57.8229 94 58.3438 92.5 58.3438H88.5ZM92.25 1.5C92.1667 0.5 92.6667 0 93.75 0H96.2812C97.1562 0 97.6667 0.5 97.8125 1.5L97.9688 2.625C98.0938 3.60417 98.7083 4.36458 99.8125 4.90625C100.938 5.44792 102.438 5.71875 104.312 5.71875C106.188 5.71875 107.677 5.44792 108.781 4.90625C109.906 4.36458 110.531 3.60417 110.656 2.625L110.812 1.5C110.958 0.5 111.469 0 112.344 0H114.875C115.958 0 116.458 0.5 116.375 1.5L116.188 3.6875C116.021 5.54167 114.75 7.05208 112.375 8.21875C110.021 9.38542 107.333 9.96875 104.312 9.96875C101.292 9.96875 98.5938 9.38542 96.2188 8.21875C93.8646 7.05208 92.6042 5.54167 92.4375 3.6875L92.25 1.5ZM133.875 58.3438C132.833 58.3438 132.312 57.7708 132.312 56.625V15.25C132.312 14.1042 132.833 13.5312 133.875 13.5312H140.531C141.323 13.5312 141.917 14.1562 142.312 15.4062L151.25 43.4375C152.167 46.3125 152.708 48.0521 152.875 48.6562C153.042 49.2396 153.281 50.3229 153.594 51.9062H153.781C154.094 50.3229 154.333 49.2396 154.5 48.6562C154.667 48.0521 155.208 46.3125 156.125 43.4375L165.062 15.4062C165.458 14.1562 166.052 13.5312 166.844 13.5312H173.5C174.542 13.5312 175.062 14.1042 175.062 15.25V56.625C175.062 57.7708 174.542 58.3438 173.5 58.3438H170.625C169.583 58.3438 169.062 57.7708 169.062 56.625V23.8438C169.062 23.0104 169.083 22.1771 169.125 21.3438H169L157.469 56.4375C157.052 57.7083 156.365 58.3438 155.406 58.3438H151.969C151.01 58.3438 150.323 57.7083 149.906 56.4375L138.375 21.3438H138.25C138.292 22.1771 138.312 23.0104 138.312 23.8438V56.625C138.312 57.7708 137.792 58.3438 136.75 58.3438H133.875ZM187.25 58.3438C186.208 58.3438 185.688 57.7708 185.688 56.625V15.25C185.688 14.1042 186.208 13.5312 187.25 13.5312H190.125C191.167 13.5312 191.688 14.1042 191.688 15.25V47.7188C191.688 48.5521 191.667 49.3854 191.625 50.2188H191.75L211.75 15.0938C212.333 14.0521 213.375 13.5312 214.875 13.5312H218.875C219.917 13.5312 220.438 14.1042 220.438 15.25V56.625C220.438 57.7708 219.917 58.3438 218.875 58.3438H216C214.958 58.3438 214.438 57.7708 214.438 56.625V24.1562C214.438 23.3229 214.458 22.4896 214.5 21.6562H214.375L194.375 56.7812C193.792 57.8229 192.75 58.3438 191.25 58.3438H187.25ZM232.625 58.3438C231.583 58.3438 231.062 57.7708 231.062 56.625V15.25C231.062 14.1042 231.583 13.5312 232.625 13.5312H235.5C236.542 13.5312 237.062 14.1042 237.062 15.25V32.9375H238.375C240.75 32.9375 242.646 32.3438 244.062 31.1562C245.5 29.9479 246.833 28.4479 248.062 26.6562L256.188 14.75C256.75 13.9375 257.479 13.5312 258.375 13.5312H262.031C263.365 13.5312 263.552 14.2188 262.594 15.5938L253 29.2188C251.875 30.8021 250.615 32.1771 249.219 33.3438C247.844 34.4896 246.885 35.1667 246.344 35.375V35.4062C247.51 35.6562 248.719 36.2188 249.969 37.0938C251.219 37.9479 252.75 39.7604 254.562 42.5312L263.562 56.2812C264.458 57.6562 264.271 58.3438 263 58.3438H259.031C258.052 58.3438 257.323 57.9375 256.844 57.125L249.938 45.5938C248.583 43.3438 246.948 41.5104 245.031 40.0938C243.135 38.6562 241.073 37.9375 238.844 37.9375H237.062V56.625C237.062 57.7708 236.542 58.3438 235.5 58.3438H232.625ZM268.312 35.9375C268.312 28.6458 270.115 22.9375 273.719 18.8125C277.344 14.6667 282.542 12.5938 289.312 12.5938C293.271 12.5938 296.542 13.2708 299.125 14.625C301.708 15.9583 303.562 17.7917 304.688 20.125C305.271 21.3333 305.177 22.1667 304.406 22.625L301.938 24.0625C301.104 24.5417 300.365 24.1458 299.719 22.875C299.031 21.5625 297.906 20.3333 296.344 19.1875C294.781 18.0417 292.542 17.4688 289.625 17.4688C284.417 17.4688 280.625 19.0938 278.25 22.3438C275.896 25.5729 274.719 30.1042 274.719 35.9375C274.719 41.7708 275.896 46.3125 278.25 49.5625C280.625 52.7917 284.417 54.4062 289.625 54.4062C292.625 54.4062 295.021 53.7188 296.812 52.3438C298.625 50.9688 299.938 49.5312 300.75 48.0312C301.396 46.8229 302.146 46.4583 303 46.9375L305.594 48.4062C306.344 48.8438 306.406 49.6771 305.781 50.9062C304.552 53.3021 302.552 55.3021 299.781 56.9062C297.01 58.4896 293.521 59.2812 289.312 59.2812C282.542 59.2812 277.344 57.2188 273.719 53.0938C270.115 48.9479 268.312 43.2292 268.312 35.9375Z" fill="white"/>
</svg>
