<svg width="50" height="50" viewBox="0 0 50 50" fill="none" xmlns="http://www.w3.org/2000/svg">
<rect x="0.350775" y="0.350775" width="49.2985" height="49.2985" rx="9.64923" fill="#F9FAFC"/>
<rect x="0.350775" y="0.350775" width="49.2985" height="49.2985" rx="9.64923" stroke="#EDEFF5" stroke-width="0.70155"/>
<path d="M23.666 18.3715C23.666 21.2975 21.2949 23.6704 18.369 23.6704C15.4431 23.6704 13.0703 21.2975 13.0703 18.3715C13.0703 15.446 15.4431 13.0742 18.369 13.0742C21.2949 13.0742 23.666 15.446 23.666 18.3715Z" fill="#00AAFF"/>
<path d="M36.9229 30.482C36.9229 34.0419 34.0363 36.927 30.4765 36.927C26.9185 36.927 24.0347 34.0419 24.0347 30.482C24.0347 26.922 26.9185 24.0364 30.4765 24.0364C34.0363 24.0364 36.9229 26.922 36.9229 30.482Z" fill="#97CF26"/>
<path d="M34.6262 18.3716C34.6262 20.6632 32.7684 22.5217 30.4764 22.5217C28.1872 22.5217 26.3299 20.6632 26.3299 18.3716C26.3299 16.0812 28.1877 14.2238 30.4764 14.2238C32.7684 14.2238 34.6262 16.0812 34.6262 18.3716Z" fill="#FF6163"/>
<path d="M21.3705 30.4817C21.3705 32.1394 20.0259 33.4807 18.3689 33.4807C16.7119 33.4807 15.3673 32.1394 15.3673 30.4817C15.3673 28.824 16.7119 27.4827 18.3689 27.4827C20.0259 27.4827 21.3705 28.824 21.3705 30.4817Z" fill="#A169F7"/>
</svg>
