<svg width="50" height="50" viewBox="0 0 50 50" fill="none" xmlns="http://www.w3.org/2000/svg">
<rect width="50" height="50" rx="10" fill="#D6001C"/>
<path d="M17.8421 18.3359V23.4805C18.6993 22.5466 19.7268 22.0765 20.9184 22.0765C21.5321 22.0765 22.0817 22.1836 22.5747 22.396C23.0691 22.6071 23.4388 22.878 23.6884 23.207C23.9394 23.5391 24.109 23.9027 24.2007 24.3034C24.2918 24.7023 24.3373 25.323 24.3373 26.1649V31.6654H21.6741V26.7112C21.6741 25.7282 21.6259 25.1056 21.5245 24.8409C21.4295 24.5817 21.2411 24.3595 20.9901 24.2108C20.7335 24.0526 20.4143 23.9745 20.0288 23.9745C19.5875 23.9745 19.1917 24.0753 18.8476 24.2757C18.4959 24.4773 18.2435 24.7786 18.0835 25.1812C17.9208 25.5845 17.8394 26.18 17.8421 26.9683L17.8394 31.6654H15.1797V18.3359H17.8428M28.3286 18.3359V23.4805C29.1864 22.5466 30.2132 22.0765 31.4041 22.0765C32.0157 22.0765 32.5695 22.1836 33.0632 22.396C33.5556 22.6071 33.9252 22.878 34.1734 23.207C34.4239 23.5369 34.5983 23.9099 34.6858 24.3034C34.7775 24.7023 34.823 25.323 34.823 26.1649V31.6654H32.1626V26.7112C32.1626 25.7282 32.1123 25.1056 32.0109 24.8409C31.9159 24.5813 31.7269 24.3591 31.4751 24.2108C31.2213 24.0526 30.8993 23.9745 30.5138 23.9745C30.0732 23.9745 29.6774 24.0753 29.3326 24.2757C28.9857 24.4773 28.732 24.7786 28.5699 25.1812C28.4099 25.5845 28.3286 26.18 28.3286 26.9683V31.6654H25.6689V18.3359H28.3286Z" fill="white"/>
</svg>
