<svg width="50" height="50" viewBox="0 0 50 50" fill="none" xmlns="http://www.w3.org/2000/svg">
<rect width="50" height="50" rx="10" fill="#2894D9"/>
<path fill-rule="evenodd" clip-rule="evenodd" d="M20.6839 29.3462C23.3784 30.9718 26.8339 30.9289 29.4833 29.2389C32.1384 27.5435 33.4941 24.5257 32.9445 21.5347C32.3892 18.5383 30.0386 16.1348 26.9382 15.4051C23.8407 14.6701 20.5797 15.7512 18.6208 18.152C17.5244 19.496 16.9297 21.0036 16.9297 23.9677L16.9297 34.8212H20.6839V29.3462ZM20.6839 22.8572C20.6839 17.3714 29.3311 17.3768 29.3311 22.8625C29.3255 25.1346 27.392 26.9775 25.0019 26.9695C22.6118 26.9695 20.6783 25.1293 20.6839 22.8572Z" fill="white"/>
</svg>
