<svg width="50" height="50" viewBox="0 0 50 50" fill="none" xmlns="http://www.w3.org/2000/svg">
<rect width="50" height="50" rx="10" fill="#00AF8F"/>
<path d="M21.605 19.0371C18.6879 19.0371 17.1881 20.6442 17.1881 22.4445C17.1881 24.2608 18.2925 25.1452 20.3364 25.6592L21.8196 26.0291C23.2867 26.3984 23.9619 26.7363 23.9619 27.5075C23.9619 28.5846 22.7751 28.9705 21.7698 28.9705C20.1052 28.9705 19.1324 28.2627 18.5231 27.2989L16.5781 28.3434C17.6161 30.2077 19.5284 30.9635 21.4734 30.9635C23.5505 30.9635 26.253 30.1117 26.253 27.2989C26.253 25.1132 24.4729 24.406 22.6435 23.9721L21.4242 23.6828C20.1882 23.3935 19.4626 23.0396 19.4626 22.3164C19.4626 21.1107 20.979 20.9501 21.4734 20.9501C23.3027 20.9501 23.9127 22.0592 24.2257 22.5897L26.138 21.4806C24.7527 19.327 22.6435 19.0371 21.605 19.0371Z" fill="white"/>
<path d="M33.4146 19.0371H31.2778V26.4755C31.2778 27.6456 31.212 28.5757 29.5358 28.5757C29.2068 28.5757 28.9769 28.5437 28.3853 28.4157V30.4513C29.0261 30.596 29.4534 30.596 29.7332 30.596C33.0697 30.596 33.4153 28.6403 33.4153 26.9888L33.4146 19.0371Z" fill="white"/>
</svg>
