<svg width="50" height="50" viewBox="0 0 50 50" fill="none" xmlns="http://www.w3.org/2000/svg">
<rect width="50" height="50" rx="10" fill="#FFCD28"/>
<path d="M17.2812 33.1376V30.2101C17.2812 29.7882 17.669 29.5044 18.017 29.6719C19.6398 30.4549 21.4198 30.833 23.3571 30.833C26.0108 30.833 27.5474 30.0198 27.5474 28.5859C27.5474 27.3065 26.535 26.6866 24.4746 26.6866H21.5863C21.2911 26.6866 21.0526 26.4211 21.0526 26.0946V23.3257C21.0526 22.9988 21.2914 22.7334 21.5863 22.7334H24.4746C26.1508 22.7334 26.9891 22.1528 26.9891 21.0289C26.9891 19.7886 25.8015 19.1686 23.4274 19.1686C21.6003 19.1686 19.9529 19.4826 18.4861 20.1339C18.1424 20.2863 17.7709 20.0025 17.7709 19.5909V16.7985C17.7709 16.4351 17.9732 16.1148 18.2764 15.9779C19.9738 15.2114 22.0693 14.8281 24.5095 14.8281C26.6398 14.8281 28.4205 15.3318 29.8519 16.3394C31.2836 17.3463 32.0167 18.6256 32.0167 20.1372C32.0167 22.1156 31.2945 23.4594 29.8505 24.1382C29.7397 24.1902 29.7447 24.3709 29.8572 24.4184C31.4975 25.1124 32.7153 26.6152 32.7153 28.8944C32.7153 30.7167 31.9125 32.2283 30.3067 33.4281C28.7346 34.5922 26.6395 35.1731 24.0557 35.1731C21.5462 35.1731 19.4703 34.7549 17.7745 33.9502C17.4786 33.8106 17.2812 33.4944 17.2812 33.1376Z" fill="black"/>
</svg>
