<svg width="25" height="25" viewBox="0 0 25 25" fill="none" xmlns="http://www.w3.org/2000/svg">
<path d="M20.3125 5.46875H17.6055L16.5039 3.82031C16.3615 3.60682 16.1686 3.4317 15.9424 3.31043C15.7163 3.18916 15.4637 3.12548 15.207 3.125H9.79297C9.53632 3.12548 9.28374 3.18916 9.05756 3.31043C8.83137 3.4317 8.63853 3.60682 8.49609 3.82031L7.39453 5.46875H4.6875C4.0659 5.46875 3.46976 5.71568 3.03022 6.15522C2.59068 6.59476 2.34375 7.1909 2.34375 7.8125V18.75C2.34375 19.3716 2.59068 19.9677 3.03022 20.4073C3.46976 20.8468 4.0659 21.0938 4.6875 21.0938H20.3125C20.9341 21.0938 21.5302 20.8468 21.9698 20.4073C22.4093 19.9677 22.6562 19.3716 22.6562 18.75V7.8125C22.6562 7.1909 22.4093 6.59476 21.9698 6.15522C21.5302 5.71568 20.9341 5.46875 20.3125 5.46875ZM15.625 14.0625H13.2812V16.4062C13.2812 16.6135 13.1989 16.8122 13.0524 16.9587C12.9059 17.1052 12.7072 17.1875 12.5 17.1875C12.2928 17.1875 12.0941 17.1052 11.9476 16.9587C11.8011 16.8122 11.7188 16.6135 11.7188 16.4062V14.0625H9.375C9.1678 14.0625 8.96909 13.9802 8.82257 13.8337C8.67606 13.6872 8.59375 13.4885 8.59375 13.2812C8.59375 13.074 8.67606 12.8753 8.82257 12.7288C8.96909 12.5823 9.1678 12.5 9.375 12.5H11.7188V10.1562C11.7188 9.94905 11.8011 9.75034 11.9476 9.60382C12.0941 9.45731 12.2928 9.375 12.5 9.375C12.7072 9.375 12.9059 9.45731 13.0524 9.60382C13.1989 9.75034 13.2812 9.94905 13.2812 10.1562V12.5H15.625C15.8322 12.5 16.0309 12.5823 16.1774 12.7288C16.3239 12.8753 16.4062 13.074 16.4062 13.2812C16.4062 13.4885 16.3239 13.6872 16.1774 13.8337C16.0309 13.9802 15.8322 14.0625 15.625 14.0625Z" fill="currentColor"/>
</svg>
